<?xml version="1.0" encoding="UTF-8"?>
<svg version="1.1" xmlns="http://www.w3.org/2000/svg" width="500" height="500" viewBox="0 0 500 500">
<g transform="translate(330, 310) scale(6)">
<path d="M0 0 C2.89324206 2.33066722 3.95629369 4.33991989 5.25 7.8125 C5.65146191 12.4948934 4.91423245 15.11978348 2.50390625 19.12109375 C1.62496704 20.60222656 1.62496704 20.60222656 0.72827148 22.11328125 C0.09606689 23.14839844 -0.5361377 24.18351562 -1.1875 25.25 C-1.82550537 26.31734375 -2.46351074 27.3846875 -3.12084961 28.484375 C-4.98624915 31.60051774 -6.86756194 34.70663226 -8.75 37.8125 C-9.67112768 39.35436096 -10.5906409 40.89718875 -11.5078125 42.44140625 C-12.96814058 44.89879828 -14.43766528 47.34992703 -15.921875 49.79296875 C-17.05273235 51.66081646 -18.17016337 53.53695695 -19.265625 55.42578125 C-21.40387984 59.05179775 -22.79541141 61.28705541 -26.75 62.8125 C-31.34524753 63.53102961 -34.8945696 63.20853259 -39.125 61.25 C-42.37697569 58.23030829 -43.60474806 56.10719478 -44.75 51.8125 C-43.64933024 44.14220759 -39.78701126 38.31503866 -35.75 31.8125 C-35.07662598 30.71268799 -34.40325195 29.61287598 -33.70947266 28.47973633 C-32.35807254 26.2761702 -31.00219259 24.07534449 -29.64160156 21.87744141 C-27.97876555 19.18316633 -26.33895402 16.47710865 -24.7109375 13.76171875 C-23.84959752 12.34075818 -22.98767149 10.9201526 -22.125 9.5 C-21.74859375 8.86771484 -21.3721875 8.23542969 -20.984375 7.58398438 C-15.70719475 -0.96770521 -9.589015 -4.14071102 0 0 Z " fill="#AAA59B" transform="translate(-5.25, -41.8125)"/>
<path d="M0 0 C2.94068366 2.39506283 4.93884783 4.22168575 5.359375 8.0546875 C5.48432966 12.39521782 5.38024446 15.31268094 3.55859375 19.3203125 C0.20519949 22.8456757 -2.95207719 24.69599362 -7.8984375 25.01171875 C-13.31346192 24.67004417 -16.09171638 22.67000237 -19.87890625 18.8828125 C-21.97799713 14.68463073 -21.42083074 9.44350283 -20.87890625 4.8828125 C-16.035844 -2.03584785 -7.51438232 -4.46801111 0 0 Z " fill="#B1ADA3" transform="translate(18.87890625, -2.8828125)"/>
</g>
</svg>
